<svg xmlns="http://www.w3.org/2000/svg" width="512" height="512" fill="none" viewBox="0 0 512 512"><path fill="#fff" d="M0 0h512v512H0z"/><path fill="url(#a)" d="M261.427 258.876c-2.011 12.395-4.768 25.123-5.969 38.018-2.173 23.258-3.438 46.616-4.93 69.94-.292 4.398-2.076 6.231-6.261 6.164-7.363-.1-14.759-.1-22.122 0-4.541.067-6.488-2.299-6.196-6.764 1.395-21.525 2.336-43.083 4.379-64.541 1.492-15.661 4.379-31.222 6.747-47.415-3.276-.933-6.909-1.933-10.51-3.033-26.825-8.096-48.721-23.091-63.448-48.014-10.25-17.36-15.181-36.486-17.159-56.512-.422-4.431-.681-8.863-.941-13.295-.227-4.065 1.817-6.23 5.709-6.264 7.363-.1 14.759-.066 22.123 0 4.314.034 5.611 2.566 5.806 6.731.811 18.959 4.152 37.285 14.5 53.512 12.131 18.926 30.199 28.29 51.024 33.188 2.887.666 3.439-1.167 4.185-3.366 5.968-18.159 13.332-35.619 24.133-51.38 13.884-20.225 31.497-35.053 55.923-39.385 14.694-2.599 29.226-2.565 41.877 7.164 11.937 9.197 16.316 22.225 15.635 36.953-1.038 22.524-10.704 41.35-26.502 56.378-22.447 21.392-49.467 31.521-80.121 31.288-2.076 0-4.184 0-6.26.033-.227.033-.519.233-1.622.6m10.12-35.82c.682.367.941.567 1.233.633.454.067.973.1 1.427.067 23.031-1.233 42.591-9.829 57.156-28.755 5.546-7.231 9.277-15.328 10.25-24.591.811-7.897-2.011-11.162-9.699-10.929-10.218.3-19.463 3.765-27.475 10.296-17.062 13.795-25.431 33.22-32.892 53.279"/><defs><linearGradient id="a" x1="255.5" x2="255.5" y1="373" y2="125" gradientUnits="userSpaceOnUse"><stop stop-color="#03533a"/><stop offset=".697" stop-color="#07b981"/></linearGradient></defs></svg>